<mxfile host="app.diagrams.net" agent="Mozilla/5.0 (Windows NT 10.0; Win64; x64) AppleWebKit/537.36 (KHTML, like Gecko) Chrome/132.0.0.0 Safari/537.36" version="28.0.6">
  <diagram name="第 1 页" id="8qDZkICbxLv3Rw7mrYND">
    <mxGraphModel dx="578" dy="342" grid="1" gridSize="10" guides="1" tooltips="1" connect="1" arrows="1" fold="1" page="1" pageScale="1" pageWidth="827" pageHeight="1169" math="0" shadow="0">
      <root>
        <mxCell id="0" />
        <mxCell id="1" parent="0" />
        <mxCell id="sxu6myxXB3jQ-wyJgJR_-3" value="" style="edgeStyle=orthogonalEdgeStyle;rounded=0;orthogonalLoop=1;jettySize=auto;html=1;" edge="1" parent="1" source="sxu6myxXB3jQ-wyJgJR_-1" target="sxu6myxXB3jQ-wyJgJR_-2">
          <mxGeometry relative="1" as="geometry" />
        </mxCell>
        <mxCell id="sxu6myxXB3jQ-wyJgJR_-1" value="初始化USB-PD&lt;div&gt;初始化1Khz时钟&lt;/div&gt;" style="rounded=1;whiteSpace=wrap;html=1;" vertex="1" parent="1">
          <mxGeometry x="100" y="50" width="120" height="60" as="geometry" />
        </mxCell>
        <mxCell id="sxu6myxXB3jQ-wyJgJR_-5" value="" style="edgeStyle=orthogonalEdgeStyle;rounded=0;orthogonalLoop=1;jettySize=auto;html=1;" edge="1" parent="1" source="sxu6myxXB3jQ-wyJgJR_-2" target="sxu6myxXB3jQ-wyJgJR_-4">
          <mxGeometry relative="1" as="geometry" />
        </mxCell>
        <mxCell id="sxu6myxXB3jQ-wyJgJR_-2" value="每隔3s检测一次&lt;div&gt;CC引脚的连接状态&lt;/div&gt;" style="rounded=1;whiteSpace=wrap;html=1;" vertex="1" parent="1">
          <mxGeometry x="100" y="190" width="120" height="60" as="geometry" />
        </mxCell>
        <mxCell id="sxu6myxXB3jQ-wyJgJR_-4" value="返回连接结果&lt;div&gt;0失败，1CC1，2CC2&lt;/div&gt;" style="whiteSpace=wrap;html=1;rounded=1;" vertex="1" parent="1">
          <mxGeometry x="100" y="330" width="120" height="60" as="geometry" />
        </mxCell>
        <mxCell id="sxu6myxXB3jQ-wyJgJR_-6" value="&lt;div&gt;多次执行PD主函数&lt;/div&gt;PD_Main_Proc" style="whiteSpace=wrap;html=1;rounded=1;" vertex="1" parent="1">
          <mxGeometry x="300" y="190" width="120" height="60" as="geometry" />
        </mxCell>
        <mxCell id="sxu6myxXB3jQ-wyJgJR_-9" value="" style="endArrow=classic;html=1;rounded=0;exitX=0.5;exitY=1;exitDx=0;exitDy=0;entryX=0.5;entryY=0;entryDx=0;entryDy=0;" edge="1" parent="1" source="sxu6myxXB3jQ-wyJgJR_-1" target="sxu6myxXB3jQ-wyJgJR_-6">
          <mxGeometry width="50" height="50" relative="1" as="geometry">
            <mxPoint x="170" y="230" as="sourcePoint" />
            <mxPoint x="220" y="180" as="targetPoint" />
          </mxGeometry>
        </mxCell>
      </root>
    </mxGraphModel>
  </diagram>
</mxfile>
